<svg
  xmlns="http://www.w3.org/2000/svg"
  version="1.0"
  viewBox="0 0 500 500"
  fill="none"
>
  <path d="M224 81.5C152.9 93.2 98.3 145.3 82.8 216c-2 9.3-2.3 13.2-2.2 34 0 25.9 1.1 33.6 7.4 53.2 16.6 50.6 58 92.1 108.7 108.7 19.5 6.3 28.5 7.6 53.8 7.6 19.9-.1 24.4-.4 33.2-2.3 61.1-13.3 109.4-56.2 128.3-114 6.4-19.7 7.4-27.3 7.4-53.2 0-20.6-.2-24.8-2.2-33.7-14.9-68.2-65.2-118.7-133-133.4-12.7-2.7-47.2-3.6-60.2-1.4zm43.5 8.5c50.2 5.8 92.5 32.7 119.8 76.2 28.3 45.1 31.3 105 7.8 153.3-28.6 58.6-88 94.2-152.1 91.2-106.7-5.1-179-109.7-145.9-211C120.5 128.1 192.9 81.5 267.5 90z" />
  <path d="M230 134.7c-.8.3-3.2 2.1-5.2 4.1-2.3 2.2-4.2 3.2-5.2 2.9-2.5-1-5.9.8-10.8 5.5-2.5 2.4-6.1 5.8-8.1 7.7l-3.6 3.4-3.1-2.7c-3.6-3-4-3.1-6.2-1.4-2.7 2.2-20 26.1-21.9 30.3-1 2.2-1.9 5.7-1.9 7.9 0 3.6.9 4.7 13.3 17.5 12.3 12.7 14.4 15.5 30.5 40.4 9.5 14.7 17.6 27.5 17.9 28.3.3.8-.5 2.6-1.7 3.9l-2.3 2.4 2.5 5.8 2.4 5.8-2 4.8c-2.5 5.9-1.5 8 4 8.7l3.9.5 11.1 26.3c6.1 14.5 11.8 27 12.6 27.8 2.1 2.1 8 .5 14.5-3.9 5-3.5 13.9-14.2 14.9-18 .4-1.7-4.4-11.3-18.2-36.8-10.3-18.9-19.4-35.2-20.2-36.2-.8-.9-2.3-1.7-3.2-1.7-3.4 0-19.2-31-20.7-40.7-.6-3.3-.5-3.5 1.8-2.9 5.4 1.5 20.7 9.8 25.4 13.7 5.9 4.8 7.1 6.7 5.6 8.2-2.4 2.4-.9 5.4 6.3 12.6l7.4 7.3-1.7 2.9-1.6 2.9 22 22c12.1 12.1 22.7 22 23.5 22 2.3 0 24-22.2 24-24.5 0-2-41.5-44.5-43.5-44.5-.5 0-5.7-4.7-11.6-10.5-9-8.9-11.1-10.5-13.1-10-1.8.5-3.1-.2-5.6-2.7l-3.2-3.4 5-4.9c2.8-2.7 5-5.6 5-6.5 0-1.7-10.9-13-12.5-13-.5 0-3.3 2.3-6.2 5.2l-5.3 5.2-2.2-2.2-2.2-2.2 4.7-4.8c2.6-2.6 4.7-5.7 4.7-6.8 0-2.4-9.9-12.4-12.3-12.4-1 0-4 2.1-6.8 4.7l-5 4.6-3.4-3.3-3.5-3.4 8.5-8.6c7.3-7.3 8.5-9 8.5-11.9 0-2.4 1-4.4 3.5-7.2 5.6-6.2 4.5-13.8-2.5-17.4-3-1.6-4.5-1.7-7-.8zm4.9 8.7c1.4 1.6.4 4.3-2.4 6.6-1.4 1.1-1.9 1-3.8-.8l-2.1-2.2 2.4-2.5c2.7-2.8 4.2-3.1 5.9-1.1zM224 154.5l5.5 5.5-7.8 7.8-7.7 7.7-5.7-5.8-5.8-5.7 7.5-7.5c4.1-4.1 7.7-7.5 8-7.5.3 0 3 2.5 6 5.5zm2.5 43.9c26.5 26.1 35.6 35.8 35.2 37-.6 1.4-1.7.8-6.9-3.2-8.4-6.6-15.5-10.4-26.2-14.2-10.3-3.5-24.4-5-31.1-3.1l-4 1.1-11.4-11.5-11.5-11.4 1.1-3.5c1-3.4 17.1-26.5 18.4-26.6.3 0 16.7 15.9 36.4 35.4zm13.9-9.1c.8 1.3.4 2.3-1.9 4.7l-2.9 3-2-2-2-2 2.9-3c3.1-3.2 4.2-3.4 5.9-.7zm16.9 22.9c-3.2 3.1-3.3 3.2-5.3 1.3l-2-1.9 3.2-3.3 3.2-3.3 2 2 2.1 2-3.2 3.2zm-42.6 10.2c.3.3.9 2.7 1.4 5.4 1.4 8.9 9.8 27.6 18.9 42 1.5 2.3 1.2 2.9-2.4 4.5-.3.1-8.1-11.5-17.4-25.8-15.5-23.8-16.7-26.1-14.8-26.7 2.3-.8 13.4-.3 14.3.6zm63.1 21.9 7.2 7.3-5 4.9-5 5-6.1-6.1-6.1-6.1 3.1-6.2c1.7-3.3 3.5-6.1 3.9-6.1.4 0 4 3.3 8 7.3zm41.9 55.4-7.7 7.8-18-18-18-18 7.7-7.7 7.8-7.8 18 18 18 18-7.8 7.7zm-58.9 9.3c17 31.3 17.3 32 15.8 34.7-2.5 4.8-14.8 15.6-16.1 14.1-.1-.2-5.3-12.4-11.5-27.1-10.7-25.3-11.5-26.8-14.2-27.4-2.2-.4-2.7-1-2.2-2.2 1.6-3.8 1.5-6.1-.5-10.5l-2-4.6 5.7-4.5c3.1-2.5 6.2-4.5 6.7-4.5.6 0 8.8 14.4 18.3 32z" />
  <path d="M186.3 179.5c-6.3 2.7-8.2 11.1-3.7 16.4 7.6 9.1 22.6.6 18-10.3-2.6-6.1-8.5-8.7-14.3-6.1zm7.5 9.1c.2 1.1-.3 2.6-1.1 3.3-2.9 2.4-7-1.7-4.6-4.6 1.7-2 5.3-1.2 5.7 1.3z" />
</svg>
